<svg width="37" height="32" viewBox="0 0 37 32" fill="none" xmlns="http://www.w3.org/2000/svg">
<path d="M27.8438 22.6875C27.9375 22.7812 28.0312 22.9375 28.0312 23.0938C28.0312 23.2188 27.9688 23.3125 27.9062 23.4062L27.5938 23.7812C27.5 23.9062 27.375 23.9688 27.1875 23.9688C27.0938 23.9688 26.9688 23.9375 26.9062 23.875L8.21875 9.25C8.09375 9.1875 8 9.03125 8 8.875C8 8.75 8.0625 8.65625 8.125 8.5625L8.4375 8.15625C8.53125 8.0625 8.65625 8 8.84375 8C8.9375 8 9.0625 8.03125 9.15625 8.09375L27.8438 22.6875ZM17.2812 12.5625C17.5312 12.5 17.7812 12.5 18.0312 12.4688C19.9062 12.4688 21.4375 13.9688 21.5 15.8438L17.2812 12.5625ZM18.75 19.4062C18.5 19.4688 18.25 19.4688 18.0312 19.4688C16.125 19.4688 14.5938 18 14.5312 16.125L18.75 19.4062ZM18.0312 11.4688C17.4062 11.4688 16.7812 11.5625 16.1875 11.7188L14.75 10.5625C15.7812 10.1875 16.875 9.96875 18.0312 9.96875C21.8438 9.96875 25.2188 12.2188 26.9062 15.5312C26.9688 15.6562 27.0312 15.8125 27.0312 16C27.0312 16.1562 26.9688 16.3125 26.9062 16.4375C26.4688 17.3125 25.9062 18.0938 25.25 18.7812L24.0625 17.875C24.625 17.3125 25.0625 16.6875 25.4375 15.9688C23.9375 13.1875 21.0938 11.4688 18.0312 11.4688ZM18.0312 20.4688C18.625 20.4688 19.25 20.4062 19.8438 20.25L21.2812 21.4062C20.25 21.75 19.1562 21.9688 18.0312 21.9688C14.1875 21.9688 10.8125 19.75 9.125 16.4375C9.0625 16.3125 9.03125 16.1562 9.03125 15.9688C9.03125 15.8125 9.0625 15.6562 9.125 15.5312C9.5625 14.6562 10.125 13.875 10.7812 13.1875L11.9688 14.0938C11.4062 14.6562 10.9688 15.2812 10.5938 15.9688C12.0938 18.75 14.9375 20.4688 18.0312 20.4688Z" fill="black"/>
</svg>
